<mxfile host="app.diagrams.net" modified="2021-08-27T05:18:10.959Z" agent="5.0 (Windows NT 10.0; Win64; x64) AppleWebKit/537.36 (KHTML, like Gecko) Chrome/92.0.4515.159 Safari/537.36" etag="Csi1OeZNmeiPwM1SfGdj" version="14.9.9" type="github">
  <diagram id="ZREEHKFsNqYcn_0LD02W" name="Page-1">
    <mxGraphModel dx="1308" dy="525" grid="1" gridSize="10" guides="1" tooltips="1" connect="1" arrows="1" fold="1" page="1" pageScale="1" pageWidth="827" pageHeight="1169" math="0" shadow="0">
      <root>
        <mxCell id="0" />
        <mxCell id="1" parent="0" />
        <mxCell id="EDpMbhMezbth3EZVL6RN-5" value="业务前端系统界面" style="rounded=0;whiteSpace=wrap;html=1;sketch=0;" parent="1" vertex="1">
          <mxGeometry x="80" y="40" width="150" height="40" as="geometry" />
        </mxCell>
        <mxCell id="6B2RGjhMACgse9mVXsSE-1" value="永中JsPlugin引擎" style="rounded=0;whiteSpace=wrap;html=1;" parent="1" vertex="1">
          <mxGeometry x="340" y="40" width="170" height="40" as="geometry" />
        </mxCell>
        <mxCell id="6B2RGjhMACgse9mVXsSE-2" value="" style="endArrow=none;html=1;entryX=0.5;entryY=1;entryDx=0;entryDy=0;" parent="1" target="EDpMbhMezbth3EZVL6RN-5" edge="1">
          <mxGeometry width="50" height="50" relative="1" as="geometry">
            <mxPoint x="155" y="500" as="sourcePoint" />
            <mxPoint x="160" y="130" as="targetPoint" />
          </mxGeometry>
        </mxCell>
        <mxCell id="GitLug8t8DMqZiwa2FT_-1" value="" style="endArrow=classic;html=1;" parent="1" edge="1">
          <mxGeometry width="50" height="50" relative="1" as="geometry">
            <mxPoint x="160" y="160" as="sourcePoint" />
            <mxPoint x="420" y="160" as="targetPoint" />
            <Array as="points">
              <mxPoint x="290" y="160" />
            </Array>
          </mxGeometry>
        </mxCell>
        <mxCell id="GitLug8t8DMqZiwa2FT_-2" value="" style="endArrow=none;html=1;entryX=0.5;entryY=1;entryDx=0;entryDy=0;" parent="1" target="6B2RGjhMACgse9mVXsSE-1" edge="1">
          <mxGeometry width="50" height="50" relative="1" as="geometry">
            <mxPoint x="425" y="500" as="sourcePoint" />
            <mxPoint x="400" y="170" as="targetPoint" />
          </mxGeometry>
        </mxCell>
        <mxCell id="GitLug8t8DMqZiwa2FT_-3" value="&lt;font style=&quot;font-size: 14px&quot;&gt;通过自定义URL协议启动永中客户端&lt;/font&gt;" style="text;html=1;align=center;verticalAlign=middle;resizable=0;points=[];autosize=1;strokeColor=none;" parent="1" vertex="1">
          <mxGeometry x="170" y="130" width="240" height="20" as="geometry" />
        </mxCell>
        <mxCell id="GitLug8t8DMqZiwa2FT_-5" value="启动永中监听服务" style="rounded=0;whiteSpace=wrap;html=1;" parent="1" vertex="1">
          <mxGeometry x="365" y="200" width="120" height="60" as="geometry" />
        </mxCell>
        <mxCell id="GitLug8t8DMqZiwa2FT_-6" value="" style="endArrow=classic;html=1;" parent="1" edge="1">
          <mxGeometry width="50" height="50" relative="1" as="geometry">
            <mxPoint x="160" y="350" as="sourcePoint" />
            <mxPoint x="360" y="350" as="targetPoint" />
            <Array as="points" />
          </mxGeometry>
        </mxCell>
        <mxCell id="GitLug8t8DMqZiwa2FT_-8" value="解析参数" style="rounded=0;whiteSpace=wrap;html=1;" parent="1" vertex="1">
          <mxGeometry x="365" y="330" width="120" height="60" as="geometry" />
        </mxCell>
        <mxCell id="GitLug8t8DMqZiwa2FT_-9" value="WP/SS/PG" style="rounded=0;whiteSpace=wrap;html=1;" parent="1" vertex="1">
          <mxGeometry x="595" y="40" width="140" height="40" as="geometry" />
        </mxCell>
        <mxCell id="GitLug8t8DMqZiwa2FT_-10" value="" style="endArrow=none;html=1;entryX=0.5;entryY=1;entryDx=0;entryDy=0;" parent="1" edge="1">
          <mxGeometry width="50" height="50" relative="1" as="geometry">
            <mxPoint x="665" y="493" as="sourcePoint" />
            <mxPoint x="665" y="83" as="targetPoint" />
          </mxGeometry>
        </mxCell>
        <mxCell id="GitLug8t8DMqZiwa2FT_-11" value="" style="endArrow=classic;html=1;" parent="1" edge="1">
          <mxGeometry width="50" height="50" relative="1" as="geometry">
            <mxPoint x="425" y="450" as="sourcePoint" />
            <mxPoint x="665" y="450" as="targetPoint" />
            <Array as="points">
              <mxPoint x="525" y="450" />
            </Array>
          </mxGeometry>
        </mxCell>
        <mxCell id="GitLug8t8DMqZiwa2FT_-12" value="传递参数" style="text;html=1;align=center;verticalAlign=middle;resizable=0;points=[];autosize=1;strokeColor=none;" parent="1" vertex="1">
          <mxGeometry x="250" y="320" width="60" height="20" as="geometry" />
        </mxCell>
        <mxCell id="GitLug8t8DMqZiwa2FT_-13" value="调起&amp;amp;传参" style="text;html=1;align=center;verticalAlign=middle;resizable=0;points=[];autosize=1;strokeColor=none;" parent="1" vertex="1">
          <mxGeometry x="515" y="410" width="70" height="20" as="geometry" />
        </mxCell>
        <mxCell id="GitLug8t8DMqZiwa2FT_-15" value="业务前端系统界面" style="rounded=0;whiteSpace=wrap;html=1;sketch=0;" parent="1" vertex="1">
          <mxGeometry x="80" y="500" width="150" height="40" as="geometry" />
        </mxCell>
        <mxCell id="GitLug8t8DMqZiwa2FT_-16" value="永中JsPlugin引擎" style="rounded=0;whiteSpace=wrap;html=1;" parent="1" vertex="1">
          <mxGeometry x="340" y="495" width="170" height="45" as="geometry" />
        </mxCell>
        <mxCell id="GitLug8t8DMqZiwa2FT_-18" value="WP/SS/PG" style="rounded=0;whiteSpace=wrap;html=1;" parent="1" vertex="1">
          <mxGeometry x="595" y="495" width="140" height="40" as="geometry" />
        </mxCell>
      </root>
    </mxGraphModel>
  </diagram>
</mxfile>
